<mxfile host="app.diagrams.net" agent="Mozilla/5.0 (Macintosh; Intel Mac OS X 10_15_7) AppleWebKit/537.36 (KHTML, like Gecko) Chrome/131.0.0.0 Safari/537.36" version="24.9.1">
  <diagram name="Page-1" id="aGTL9cllFIHRhYIkei5F">
    <mxGraphModel dx="1224" dy="774" grid="1" gridSize="10" guides="1" tooltips="1" connect="1" arrows="1" fold="1" page="1" pageScale="1" pageWidth="850" pageHeight="1100" math="0" shadow="0">
      <root>
        <mxCell id="0" />
        <mxCell id="1" parent="0" />
        <mxCell id="kWCgIeekEQdQtieXCCMa-7" value="" style="edgeStyle=orthogonalEdgeStyle;rounded=0;orthogonalLoop=1;jettySize=auto;html=1;" edge="1" parent="1" source="kWCgIeekEQdQtieXCCMa-1" target="kWCgIeekEQdQtieXCCMa-3">
          <mxGeometry relative="1" as="geometry" />
        </mxCell>
        <mxCell id="kWCgIeekEQdQtieXCCMa-1" value="Transformed Data" style="rounded=0;whiteSpace=wrap;html=1;" vertex="1" parent="1">
          <mxGeometry x="50" y="320" width="120" height="60" as="geometry" />
        </mxCell>
        <mxCell id="kWCgIeekEQdQtieXCCMa-6" value="" style="edgeStyle=orthogonalEdgeStyle;rounded=0;orthogonalLoop=1;jettySize=auto;html=1;" edge="1" parent="1" source="kWCgIeekEQdQtieXCCMa-3" target="kWCgIeekEQdQtieXCCMa-5">
          <mxGeometry relative="1" as="geometry" />
        </mxCell>
        <mxCell id="kWCgIeekEQdQtieXCCMa-3" value="LSTM&lt;div&gt;&lt;br&gt;&lt;/div&gt;&lt;div&gt;UNIT = 64&lt;/div&gt;" style="rounded=0;whiteSpace=wrap;html=1;" vertex="1" parent="1">
          <mxGeometry x="240" y="150" width="120" height="400" as="geometry" />
        </mxCell>
        <mxCell id="kWCgIeekEQdQtieXCCMa-9" value="" style="edgeStyle=orthogonalEdgeStyle;rounded=0;orthogonalLoop=1;jettySize=auto;html=1;" edge="1" parent="1" source="kWCgIeekEQdQtieXCCMa-5" target="kWCgIeekEQdQtieXCCMa-8">
          <mxGeometry relative="1" as="geometry" />
        </mxCell>
        <mxCell id="kWCgIeekEQdQtieXCCMa-5" value="Dense (Linear) layer&lt;div&gt;&lt;br&gt;&lt;/div&gt;" style="rounded=0;whiteSpace=wrap;html=1;" vertex="1" parent="1">
          <mxGeometry x="430" y="150" width="120" height="400" as="geometry" />
        </mxCell>
        <mxCell id="kWCgIeekEQdQtieXCCMa-11" value="" style="edgeStyle=orthogonalEdgeStyle;rounded=0;orthogonalLoop=1;jettySize=auto;html=1;" edge="1" parent="1" source="kWCgIeekEQdQtieXCCMa-8" target="kWCgIeekEQdQtieXCCMa-10">
          <mxGeometry relative="1" as="geometry" />
        </mxCell>
        <mxCell id="kWCgIeekEQdQtieXCCMa-8" value="Denormalize" style="rounded=0;whiteSpace=wrap;html=1;" vertex="1" parent="1">
          <mxGeometry x="620" y="320" width="120" height="60" as="geometry" />
        </mxCell>
        <mxCell id="kWCgIeekEQdQtieXCCMa-10" value="Output" style="rounded=0;whiteSpace=wrap;html=1;" vertex="1" parent="1">
          <mxGeometry x="810" y="320" width="120" height="60" as="geometry" />
        </mxCell>
      </root>
    </mxGraphModel>
  </diagram>
</mxfile>
